<svg width="16" height="16" viewBox="0 0 16 16" fill="none" xmlns="http://www.w3.org/2000/svg">
<path d="M13.3333 7.33333H12.6666V4.66667H13.3333V2.66667H14.6666V4.66667H15.3333V7.33333H14.6666V12C14.6666 12.5304 14.4559 13.0391 14.0809 13.4142C13.7058 13.7893 13.1971 14 12.6666 14C12.1362 14 11.6275 13.7893 11.2524 13.4142C10.8774 13.0391 10.6666 12.5304 10.6666 12V9.33333H9.33331V12.6667H9.99998V14H1.33331V12.6667H1.99998V2.66667C1.99998 2.48986 2.07022 2.32029 2.19524 2.19526C2.32027 2.07024 2.48984 2 2.66665 2H8.66665C8.84346 2 9.01303 2.07024 9.13805 2.19526C9.26308 2.32029 9.33331 2.48986 9.33331 2.66667V8H10.6666C11.0203 8 11.3594 8.14048 11.6095 8.39052C11.8595 8.64057 12 8.97971 12 9.33333V12C12 12.1768 12.0702 12.3464 12.1952 12.4714C12.3203 12.5964 12.4898 12.6667 12.6666 12.6667C12.8435 12.6667 13.013 12.5964 13.1381 12.4714C13.2631 12.3464 13.3333 12.1768 13.3333 12V7.33333ZM7.99998 12.6667V3.33333H3.33331V12.6667H7.99998ZM5.99998 7.33333H7.99998L5.33331 11.3333V8.66667H3.33331L5.99998 4.66667V7.33333Z" fill="white"/>
</svg>
