<svg width="16" height="16" viewBox="0 0 16 16" fill="none" xmlns="http://www.w3.org/2000/svg">
<path d="M2.66665 3.33333V12.6667H13.3333V3.33333H2.66665ZM1.99998 2H14C14.1768 2 14.3464 2.07024 14.4714 2.19526C14.5964 2.32029 14.6666 2.48986 14.6666 2.66667V13.3333C14.6666 13.5101 14.5964 13.6797 14.4714 13.8047C14.3464 13.9298 14.1768 14 14 14H1.99998C1.82317 14 1.6536 13.9298 1.52858 13.8047C1.40355 13.6797 1.33331 13.5101 1.33331 13.3333V2.66667C1.33331 2.48986 1.40355 2.32029 1.52858 2.19526C1.6536 2.07024 1.82317 2 1.99998 2ZM9.86198 6.52867L8.66665 5.33333H12V8.66667L10.8046 7.47133L8.22865 10.0473L6.81465 8.63333L4.92865 10.5187L3.98598 9.576L6.81465 6.74733L8.22865 8.162L9.86198 6.52867Z" fill="white"/>
</svg>
