<svg width="12" height="19" viewBox="0 0 12 19" fill="none" xmlns="http://www.w3.org/2000/svg">
<path d="M2.5 3.33333C2.5 2.44928 2.85119 1.60143 3.47631 0.976311C4.10143 0.351189 4.94928 0 5.83333 0C6.71739 0 7.56524 0.351189 8.19036 0.976311C8.81548 1.60143 9.16667 2.44928 9.16667 3.33333V7.7125C10.1858 8.42215 10.9519 9.43853 11.3534 10.6137C11.7549 11.7889 11.7709 13.0616 11.399 14.2465C11.0271 15.4314 10.2868 16.4666 9.28572 17.2016C8.28469 17.9366 7.07522 18.333 5.83333 18.333C4.59145 18.333 3.38198 17.9366 2.38095 17.2016C1.37992 16.4666 0.639582 15.4314 0.267692 14.2465C-0.104198 13.0616 -0.0882311 11.7889 0.313269 10.6137C0.714769 9.43853 1.48085 8.42215 2.5 7.7125V3.33333ZM3.45333 9.07917C2.72514 9.58591 2.17771 10.3119 1.89071 11.1513C1.60372 11.9908 1.59215 12.8999 1.8577 13.7464C2.12325 14.5929 2.65205 15.3325 3.36711 15.8576C4.08217 16.3827 4.94618 16.6659 5.83333 16.6659C6.72049 16.6659 7.5845 16.3827 8.29956 15.8576C9.01462 15.3325 9.54342 14.5929 9.80897 13.7464C10.0745 12.8999 10.063 11.9908 9.77596 11.1513C9.48896 10.3119 8.94153 9.58591 8.21334 9.07917L7.5 8.58167V3.33333C7.5 2.89131 7.32441 2.46738 7.01185 2.15482C6.69929 1.84226 6.27536 1.66667 5.83333 1.66667C5.39131 1.66667 4.96738 1.84226 4.65482 2.15482C4.34226 2.46738 4.16667 2.89131 4.16667 3.33333V8.58167L3.45333 9.07917ZM2.5 12.5H9.16667C9.16667 13.3841 8.81548 14.2319 8.19036 14.857C7.56524 15.4821 6.71739 15.8333 5.83333 15.8333C4.94928 15.8333 4.10143 15.4821 3.47631 14.857C2.85119 14.2319 2.5 13.3841 2.5 12.5Z" fill="white"/>
</svg>
